<svg width="64" height="64" viewBox="0 0 64 64" fill="none" xmlns="http://www.w3.org/2000/svg">
<path d="M40.053 5.94666C34.7196 5.11999 29.2797 5.11999 23.9464 5.94666C21.7597 6.29333 20.1597 8.15998 20.1597 10.3466V20.16H10.3463C8.15967 20.16 6.29302 21.76 5.94635 23.9467C5.11969 29.28 5.11969 34.7199 5.94635 40.0533C6.29302 42.2399 8.15967 43.84 10.3463 43.84H14.8263C15.573 43.84 16.1597 43.2533 16.1597 42.5066V37.92C16.1597 32.4533 20.613 28 26.0797 28H37.9197C38.9863 28 39.8397 27.1466 39.8397 26.08V17.4933C39.8397 16.7466 40.4263 16.16 41.173 16.16H42.5063C43.253 16.16 43.8397 15.5733 43.8397 14.8266V10.3466C43.8397 8.15998 42.2396 6.29333 40.053 5.94666ZM27.5463 14.8799C26.453 14.8799 25.413 13.84 25.413 12.7466C25.413 11.6266 26.453 10.5866 27.5463 10.5866C28.0796 10.5866 28.6664 10.8267 29.0397 11.2C29.4397 11.5733 29.7064 12.1866 29.7064 12.7466C29.7064 13.84 28.6663 14.8799 27.5463 14.8799Z" fill="#647B64"/>
<path d="M58.0528 23.9466C57.7061 21.76 55.8395 20.1599 53.6528 20.1599H45.1728C44.4262 20.1599 43.8395 20.7466 43.8395 21.4933V26.0799C43.8395 29.3333 41.1995 31.9999 37.9195 31.9999H26.0795C22.7995 31.9999 20.1595 34.64 20.1595 37.92V53.6533C20.1595 55.8399 21.7595 57.7066 23.9462 58.0533C29.2795 58.8799 34.7195 58.8799 40.0528 58.0533C42.2395 57.7066 43.8395 55.8399 43.8395 53.6533V43.84H53.6528C55.8395 43.84 57.7061 42.2399 58.0528 40.0533C58.8795 34.7199 58.8795 29.28 58.0528 23.9466ZM36.4529 53.4133C35.3595 53.4133 34.2928 52.3733 34.2928 51.2533C34.2928 50.1333 35.3329 49.0933 36.4529 49.0933C36.9595 49.0933 37.5729 49.3333 37.9462 49.68C38.3462 50.0533 38.6129 50.6933 38.6129 51.2266C38.5862 52.3733 37.5462 53.4133 36.4529 53.4133Z" fill="#647B64"/>
</svg>
