<svg width="68" height="50" viewBox="0 0 68 50" fill="none" xmlns="http://www.w3.org/2000/svg">
<path d="M28.2594 34.4693C27.2607 34.4693 26.3633 33.8593 25.9959 32.9307L24.5358 29.2407C24.1683 28.312 23.271 27.702 22.2723 27.702H12.2755C11.2601 27.702 10.3514 28.3323 9.99557 29.2834L8.64708 32.888C8.2913 33.839 7.38254 34.4693 6.36713 34.4693H2.66094C0.921385 34.4693 -0.256743 32.6975 0.416176 31.0934L12.8335 1.49262C13.2128 0.588368 14.0976 0 15.0782 0H19.9164C20.9002 0 21.7873 0.592157 22.1646 1.50072L34.4564 31.1015C35.1221 32.7046 33.9441 34.4693 32.2083 34.4693H28.2594ZM19.6176 15.4509C18.8454 13.3186 15.8337 13.3077 15.046 15.4343L14.1875 17.7524C13.5986 19.3423 14.7748 21.0321 16.4702 21.0321H18.1682C19.8562 21.0321 21.0318 19.3561 20.457 17.769L19.6176 15.4509Z" fill="#647B64"/>
<path d="M67.9874 36.076C67.9874 38.1532 67.6303 40.0519 66.9163 41.7722C66.2347 43.4599 65.2447 44.9205 63.9465 46.1538C62.6482 47.3548 61.074 48.296 59.224 48.9776C57.4064 49.6592 55.3778 50 53.1383 50C50.8663 50 48.8215 49.6592 47.0039 48.9776C45.1863 48.296 43.6446 47.3548 42.3788 46.1538C41.113 44.9205 40.1392 43.4599 39.4576 41.7722C38.7761 40.0519 38.4353 38.1532 38.4353 36.076V25.9495C38.4353 24.605 37.3454 23.5152 36.001 23.5152H35.8549H28.2981C27.21 23.5152 26.254 22.7931 25.9566 21.7464L24.808 17.7054C24.3662 16.1511 25.5337 14.6056 27.1495 14.6056H44.2775C45.6219 14.6056 46.7118 15.6955 46.7118 17.0399V35.3944C46.7118 36.3356 46.8254 37.2282 47.0526 38.0721C47.3122 38.9159 47.6855 39.6787 48.1724 40.3603C48.6917 41.0094 49.357 41.5287 50.1685 41.9182C51.0123 42.3077 52.0185 42.5024 53.187 42.5024C54.3554 42.5024 55.3453 42.3077 56.1568 41.9182C57.0007 41.5287 57.6823 41.0094 58.2016 40.3603C58.7209 39.6787 59.0941 38.9159 59.3213 38.0721C59.5485 37.2282 59.6621 36.3356 59.6621 35.3944V17.0399C59.6621 15.6955 60.752 14.6056 62.0964 14.6056H65.5531C66.8975 14.6056 67.9874 15.6955 67.9874 17.0399V36.076Z" fill="#647B64"/>
</svg>
