<svg width="129" height="15" viewBox="0 0 129 15" fill="none" xmlns="http://www.w3.org/2000/svg">
<path d="M5.72603 1.35757C5.98956 0.751798 6.58727 0.36 7.24788 0.36C7.91065 0.36 8.50987 0.754321 8.77209 1.36301L13.6501 12.6863C14.0237 13.5536 13.3877 14.52 12.4434 14.52C11.9092 14.52 11.4282 14.1966 11.2267 13.7019L10.9 12.9C10.5009 11.9204 9.54846 11.28 8.49071 11.28H5.84184C4.79066 11.28 3.84623 11.9223 3.46 12.9L3.13951 13.7113C2.94669 14.1993 2.4752 14.52 1.95043 14.52C1.02958 14.52 0.410714 13.5759 0.778057 12.7315L5.72603 1.35757ZM7.16714 9.12C8.22668 9.12 8.95884 8.06006 8.58379 7.06911C8.09158 5.76858 6.25384 5.76302 5.75375 7.06053C5.3713 8.05284 6.10368 9.12 7.16714 9.12Z" fill="#647B64"/>
<path d="M14.6577 2.03919C14.4123 1.19982 15.0417 0.36 15.9162 0.36C16.5117 0.36 17.0324 0.761307 17.1842 1.33717L19.6615 10.7403C19.6646 10.7519 19.6751 10.76 19.6871 10.76C19.6987 10.76 19.709 10.7524 19.7124 10.7412L22.4542 1.60173C22.6753 0.864721 23.3537 0.36 24.1231 0.36C24.896 0.36 25.5765 0.869134 25.7947 1.61059L28.4811 10.741C28.4844 10.7523 28.4948 10.76 28.5065 10.76C28.5184 10.76 28.5289 10.752 28.532 10.7405L31.0725 1.30414C31.2225 0.747099 31.7276 0.36 32.3045 0.36C33.1554 0.36 33.7678 1.17714 33.529 1.99384L30.2124 13.3377C30.0075 14.0384 29.365 14.52 28.6349 14.52C27.9161 14.52 27.2807 14.0529 27.0662 13.3669L24.1127 3.91909C24.1091 3.90773 24.0986 3.9 24.0867 3.9C24.0748 3.9 24.0643 3.90773 24.0608 3.91909L21.1072 13.3669C20.8927 14.0529 20.2573 14.52 19.5385 14.52C18.8085 14.52 18.1659 14.0384 17.961 13.3377L14.6577 2.03919Z" fill="#647B64"/>
<path d="M35.6848 3.36C35.6848 1.70315 37.028 0.36 38.6848 0.36H43.9648C44.5724 0.36 45.0648 0.852487 45.0648 1.46C45.0648 2.06751 44.5724 2.56 43.9648 2.56H40.0048C39.0107 2.56 38.2048 3.36589 38.2048 4.36C38.2048 5.35411 39.0107 6.16 40.0048 6.16H43.6448C44.2303 6.16 44.7048 6.63458 44.7048 7.22C44.7048 7.80542 44.2303 8.28 43.6448 8.28H40.2048C39.1003 8.28 38.2048 9.17543 38.2048 10.28C38.2048 11.3846 39.1003 12.28 40.2048 12.28H44.3048C44.9234 12.28 45.4248 12.7814 45.4248 13.4C45.4248 14.0186 44.9234 14.52 44.3048 14.52H38.6848C37.028 14.52 35.6848 13.1769 35.6848 11.52V3.36Z" fill="#647B64"/>
<path d="M56.0078 2.33671C55.5407 2.84939 54.6953 2.81428 54.073 2.50808C54.0398 2.49176 54.0061 2.47574 53.9719 2.46C53.4919 2.22 53.0052 2.1 52.5119 2.1C52.2185 2.1 51.9252 2.14 51.6319 2.22C51.3385 2.28667 51.0719 2.4 50.8319 2.56C50.5919 2.70667 50.3919 2.90667 50.2319 3.16C50.0852 3.4 50.0119 3.69333 50.0119 4.04C50.0119 4.36 50.0785 4.63333 50.2119 4.86C50.3452 5.08667 50.5252 5.28 50.7519 5.44C50.9919 5.6 51.2785 5.74 51.6119 5.86C51.9452 5.98 52.3119 6.1 52.7119 6.22C53.1652 6.36667 53.6319 6.53333 54.1119 6.72C54.6052 6.90667 55.0519 7.15333 55.4519 7.46C55.8652 7.76667 56.1985 8.15333 56.4519 8.62C56.7185 9.08667 56.8519 9.66667 56.8519 10.36C56.8519 11.12 56.7119 11.7867 56.4319 12.36C56.1519 12.92 55.7785 13.3867 55.3119 13.76C54.8452 14.1333 54.2985 14.4133 53.6719 14.6C53.0452 14.7867 52.3852 14.88 51.6919 14.88C50.7719 14.88 49.8719 14.7133 48.9919 14.38C48.4903 14.1824 48.0407 13.9329 47.6431 13.6313C47.1421 13.2514 47.1923 12.5236 47.652 12.0946C48.1721 11.6091 49.004 11.7087 49.6036 12.0916C49.7326 12.1739 49.8687 12.2501 50.0119 12.32C50.5985 12.6 51.1719 12.74 51.7319 12.74C52.0252 12.74 52.3252 12.7067 52.6319 12.64C52.9385 12.56 53.2119 12.4333 53.4519 12.26C53.7052 12.0867 53.9052 11.8733 54.0519 11.62C54.2119 11.3533 54.2919 11.0267 54.2919 10.64C54.2919 10.2667 54.2052 9.96 54.0319 9.72C53.8585 9.46667 53.6252 9.25333 53.3319 9.08C53.0385 8.89333 52.6919 8.73333 52.2919 8.6C51.8919 8.46667 51.4719 8.32667 51.0319 8.18C50.6052 8.04667 50.1785 7.88667 49.7519 7.7C49.3252 7.51333 48.9385 7.26667 48.5919 6.96C48.2585 6.65333 47.9852 6.28 47.7719 5.84C47.5585 5.38667 47.4519 4.82667 47.4519 4.16C47.4519 3.44 47.5985 2.82 47.8919 2.3C48.1985 1.78 48.5919 1.35333 49.0719 1.02C49.5652 0.673333 50.1185 0.419999 50.7319 0.259999C51.3585 0.0866663 51.9919 0 52.6319 0C53.3519 0 54.0785 0.126667 54.8119 0.38C55.1893 0.508055 55.5412 0.668475 55.8675 0.861261C56.3942 1.17241 56.4197 1.88453 56.0078 2.33671Z" fill="#647B64"/>
<path d="M58.6963 7.4C58.6963 6.26667 58.8829 5.24667 59.2562 4.34C59.6429 3.42 60.1696 2.64 60.8363 2C61.5163 1.36 62.3162 0.866666 63.2363 0.519999C64.1696 0.173333 65.1829 0 66.2763 0C67.3829 0 68.4029 0.173333 69.3363 0.519999C70.2696 0.866666 71.0763 1.36 71.7563 2C72.4363 2.64 72.9629 3.42 73.3363 4.34C73.7229 5.24667 73.9163 6.26667 73.9163 7.4C73.9163 8.50667 73.7229 9.52 73.3363 10.44C72.9629 11.3467 72.4363 12.1333 71.7563 12.8C71.0763 13.4533 70.2696 13.9667 69.3363 14.34C68.4029 14.7 67.3829 14.88 66.2763 14.88C65.1829 14.88 64.1696 14.7 63.2363 14.34C62.3162 13.9667 61.5163 13.4533 60.8363 12.8C60.1696 12.1333 59.6429 11.3467 59.2562 10.44C58.8829 9.52 58.6963 8.50667 58.6963 7.4ZM61.4362 7.4C61.4362 8.16 61.5496 8.86 61.7762 9.5C62.0163 10.1267 62.3496 10.6733 62.7762 11.14C63.2162 11.6067 63.7296 11.9733 64.3163 12.24C64.9163 12.4933 65.5763 12.62 66.2963 12.62C67.0163 12.62 67.6763 12.4933 68.2763 12.24C68.8763 11.9733 69.3896 11.6067 69.8163 11.14C70.2563 10.6733 70.5896 10.1267 70.8163 9.5C71.0563 8.86 71.1763 8.16 71.1763 7.4C71.1763 6.66667 71.0563 5.98667 70.8163 5.36C70.5896 4.73333 70.2629 4.18667 69.8363 3.72C69.4096 3.25333 68.8963 2.88667 68.2963 2.62C67.6963 2.35333 67.0296 2.22 66.2963 2.22C65.5629 2.22 64.8963 2.35333 64.2963 2.62C63.7096 2.88667 63.2029 3.25333 62.7762 3.72C62.3496 4.18667 62.0163 4.73333 61.7762 5.36C61.5496 5.98667 61.4362 6.66667 61.4362 7.4Z" fill="#647B64"/>
<path d="M76.3489 2.67901C76.3489 1.39826 77.3872 0.36 78.6679 0.36C79.6414 0.36 80.5113 0.968054 80.8458 1.88233L83.9586 10.3919C83.9648 10.4088 83.9809 10.42 83.9989 10.42C84.0169 10.42 84.033 10.4087 84.0391 10.3917L87.1134 1.89539C87.4468 0.973892 88.3218 0.36 89.3017 0.36C90.587 0.36 91.6289 1.40192 91.6289 2.6872V13.27C91.6289 13.9604 91.0693 14.52 90.3789 14.52C89.6886 14.52 89.1289 13.9604 89.1289 13.27V3.16365C89.1289 3.15059 89.1183 3.14 89.1053 3.14C89.0954 3.14 89.0866 3.14609 89.0831 3.15529L85.0992 13.6988C84.9125 14.193 84.4394 14.52 83.9111 14.52C83.3807 14.52 82.9061 14.1904 82.7209 13.6933L78.7946 3.15536C78.7912 3.14613 78.7824 3.14 78.7725 3.14C78.7595 3.14 78.7489 3.15057 78.7489 3.16361V13.32C78.7489 13.9827 78.2116 14.52 77.5489 14.52C76.8862 14.52 76.3489 13.9827 76.3489 13.32V2.67901Z" fill="#647B64"/>
<path d="M94.7473 3.36C94.7473 1.70315 96.0905 0.36 97.7473 0.36H103.027C103.635 0.36 104.127 0.852487 104.127 1.46C104.127 2.06751 103.635 2.56 103.027 2.56H99.0674C98.0732 2.56 97.2673 3.36589 97.2673 4.36C97.2673 5.35411 98.0732 6.16 99.0674 6.16H102.707C103.293 6.16 103.767 6.63458 103.767 7.22C103.767 7.80542 103.293 8.28 102.707 8.28H99.2673C98.1628 8.28 97.2673 9.17543 97.2673 10.28C97.2673 11.3846 98.1628 12.28 99.2673 12.28H103.367C103.986 12.28 104.487 12.7814 104.487 13.4C104.487 14.0186 103.986 14.52 103.367 14.52H97.7473C96.0905 14.52 94.7473 13.1769 94.7473 11.52V3.36Z" fill="#647B64"/>
<path d="M123.234 9.32C123.234 10.1733 123.088 10.9467 122.794 11.64C122.501 12.32 122.101 12.9 121.594 13.38C121.088 13.86 120.488 14.2333 119.794 14.5C119.101 14.7533 118.348 14.88 117.534 14.88C116.721 14.88 115.968 14.7533 115.274 14.5C114.581 14.2333 113.974 13.86 113.454 13.38C112.948 12.9 112.548 12.32 112.254 11.64C111.974 10.9467 111.834 10.1733 111.834 9.32V1.62C111.834 0.924121 112.398 0.36 113.094 0.36C113.79 0.36 114.354 0.924121 114.354 1.62V9.22C114.354 9.63333 114.408 10.0467 114.514 10.46C114.621 10.86 114.794 11.22 115.034 11.54C115.288 11.86 115.614 12.12 116.014 12.32C116.428 12.52 116.934 12.62 117.534 12.62C118.134 12.62 118.634 12.52 119.034 12.32C119.448 12.12 119.774 11.86 120.014 11.54C120.268 11.22 120.448 10.86 120.554 10.46C120.661 10.0467 120.714 9.63333 120.714 9.22V1.62C120.714 0.924124 121.279 0.36 121.974 0.36C122.67 0.36 123.234 0.924122 123.234 1.62V9.32Z" fill="#647B64"/>
<path d="M126.232 1.62C126.232 0.924122 126.796 0.36 127.492 0.36C128.188 0.36 128.752 0.924122 128.752 1.62V13.26C128.752 13.9559 128.188 14.52 127.492 14.52C126.796 14.52 126.232 13.9559 126.232 13.26V1.62Z" fill="#647B64"/>
</svg>
