<svg width="320" height="586" viewBox="0 0 320 586" fill="none" xmlns="http://www.w3.org/2000/svg">
<path d="M45.9208 555.121C55.7884 553.148 66.7837 555.121 136.984 555.121C207.185 555.121 247.501 552.866 266.955 549.765C286.408 546.664 329.825 553.994 317.984 564.425C306.143 574.857 190.269 589.799 170.534 581.341C150.799 572.883 -3.13515 590.927 9.2698 570.346C19.1938 553.881 37.8388 553.336 45.9208 555.121Z" fill="black" fill-opacity="0.13"/>
<g clip-path="url(#clip0_1_217)">
<path d="M106.068 144.747C104.648 145.55 103.196 145.651 102.812 144.978L98.608 137.563C98.2233 136.889 99.0637 135.694 100.479 134.889C101.899 134.087 103.358 133.983 103.738 134.654L107.942 142.068C108.326 142.742 107.483 143.942 106.068 144.747V144.747Z" fill="#2B242A"/>
<path d="M100.757 133.531C100.757 133.531 98.9389 135.665 101.775 140.664C104.61 145.663 107.379 145.198 107.379 145.198C107.379 145.198 139.738 125.175 144.036 122.742C148.334 120.309 144.314 111.143 139.129 114.088C133.943 117.033 100.757 133.531 100.757 133.531Z" fill="#BC7BFB"/>
<g style="mix-blend-mode:soft-light">
<path d="M106.906 144.13C112.502 140.67 138.682 124.499 142.515 122.32L142.596 122.272C138.538 119.97 106.49 143.189 106.906 144.13Z" fill="white"/>
</g>
<g style="mix-blend-mode:multiply">
<path d="M107.284 143.209C106.664 141.112 106.543 138.934 107.5 136.904C108.71 134.32 110.83 132.315 112.983 130.497C118.08 126.201 123.477 122.506 130.06 120.972C134.908 119.847 140.241 119.703 144.623 122.315C147.94 119.411 144.05 111.296 139.129 114.089C133.949 117.023 100.76 133.526 100.76 133.526C100.76 133.526 98.9416 135.66 101.777 140.659C104.613 145.658 107.381 145.193 107.381 145.193L107.917 144.86C107.666 144.326 107.454 143.774 107.284 143.209V143.209Z" fill="#BC7BFB"/>
</g>
<g style="mix-blend-mode:soft-light">
<g style="mix-blend-mode:soft-light">
<path d="M109.871 143.66L100.491 137.693C100.677 138.337 100.917 138.964 101.208 139.567L108.735 144.358C109.05 144.18 109.442 143.92 109.871 143.66Z" fill="white"/>
</g>
<g style="mix-blend-mode:soft-light">
<path d="M114.563 140.761L102.121 132.845L100.864 133.482L113.422 141.469C113.797 141.232 114.176 140.998 114.563 140.761Z" fill="white"/>
</g>
<g style="mix-blend-mode:soft-light">
<path d="M120.797 136.912L109.008 129.418C108.578 129.627 108.17 129.841 107.75 130.055L119.659 137.627L120.797 136.912Z" fill="white"/>
</g>
<g style="mix-blend-mode:soft-light">
<path d="M127.038 133.074L115.856 125.967L114.604 126.607L125.875 133.776L127.038 133.074Z" fill="white"/>
</g>
<g style="mix-blend-mode:soft-light">
<path d="M133.291 129.24L122.764 122.537L121.512 123.178L132.137 129.922L133.291 129.24Z" fill="white"/>
</g>
<g style="mix-blend-mode:soft-light">
<path d="M139.558 125.413L129.563 119.086C129.156 119.287 128.733 119.494 128.316 119.729L138.417 126.108L139.558 125.413Z" fill="white"/>
</g>
<g style="mix-blend-mode:soft-light">
<path d="M143.353 120.017L136.36 115.572L135.128 116.222L144.607 122.244L143.353 120.017Z" fill="white"/>
</g>
</g>
<path d="M149.763 118.94C154.554 116.221 193.512 116.712 204.118 117.067C202.049 114.249 179.983 106.996 179.983 106.996C179.983 106.996 184.246 111.266 177.79 111.573C168.936 112 158.629 112.188 156.571 112.23C153.301 112.284 152.983 110.582 154.388 108.433C155.24 107.124 160.745 98.2888 165.958 90.7061C168.574 86.9034 171.061 91.3348 171.061 91.3348C171.061 91.3348 179.388 60.494 174.759 65.2969C169.426 76.4233 150.419 107.992 145.221 110.924C140.023 113.857 144.97 121.65 149.763 118.94Z" fill="#352E35"/>
<path d="M199.367 45.5659C220.253 33.7191 244.863 37.6619 254.345 54.3789C263.329 70.2213 255.465 91.8677 236.838 104.143C237.618 105.225 238.507 106.279 239.174 107.425C259.987 93.7127 268.739 69.5747 258.719 51.895C248.148 33.2526 220.689 28.8421 197.384 42.0621C194.638 43.615 192.018 45.3823 189.55 47.3475C190.343 48.4419 191.196 49.4918 192.105 50.4924C194.388 48.6563 196.817 47.0087 199.367 45.5659V45.5659Z" fill="#BC7BFB"/>
<path d="M257.99 70.9027L257.06 71.425L254.933 67.7178L257.931 65.9958C257.909 65.7337 257.88 65.4741 257.851 65.2145L254.586 67.0692L252.472 63.3619L256.199 61.2448L257.651 63.796C257.521 63.0276 257.365 62.272 257.179 61.514L256.85 60.9057L257.016 60.8114C256.952 60.5722 256.885 60.3381 256.82 60.0863L256.506 60.2646L254.389 56.5372L255.254 56.0581L254.94 55.4194L254.06 55.9288L251.945 52.1963L252.697 51.7683L252.273 51.1883L251.591 51.5755L249.689 48.2806C249.141 47.734 248.57 47.2078 247.955 46.6969L248.424 47.5566L244.691 49.6712L242.607 45.9284L245.075 44.5297C244.852 44.3823 244.624 44.2323 244.397 44.0949L242.258 45.3101L240.357 41.9597C239.922 41.7453 239.465 41.5765 239.012 41.3975L235.443 43.4103L233.326 39.6829L232.266 39.4621L228.611 41.546L227.067 38.8239L226.217 38.7759L228.003 41.8748L224.27 43.9894L222.156 40.2569L224.85 38.7308C224.363 38.7235 223.879 38.7238 223.39 38.7342L221.776 39.6488L221.308 38.8269L220.524 38.887L221.156 40.0029L217.423 42.1175L215.935 39.4985L215.195 39.6365L216.8 42.4767L213.09 44.5836L210.975 40.8511L211.656 40.4639C210.601 40.7549 209.544 41.0763 208.5 41.4227L206.275 42.6839L206.077 42.3849L205.398 42.6788L205.647 43.1162L201.917 45.1753L201.489 44.4238C201.273 44.5309 201.063 44.6372 200.86 44.7426L201.296 45.5168L197.574 47.6238L197.148 46.8798L196.545 47.2616L196.948 47.9754L193.22 50.0925L193.007 49.7735C192.813 49.9234 192.623 50.0682 192.434 50.2206L192.572 50.4644L191.142 51.2746C190.267 52.021 189.424 52.7917 188.613 53.5865L190.71 57.2914L186.978 59.406L185.525 56.8422C185.357 57.0298 185.192 57.2249 185.034 57.4175L186.359 59.755L182.642 61.8771L182.216 61.1331C182.069 61.3559 181.916 61.5762 181.769 61.7989L182.016 62.2287L181.194 62.6975C180.934 63.11 180.685 63.5275 180.44 63.9476L182.37 62.8495L184.485 66.582L180.732 68.6867L179.249 66.0702C179.122 66.3281 179 66.5759 178.868 66.844L180.116 69.0433L177.238 70.6738C177.045 71.207 176.861 71.7452 176.683 72.2859L178.601 75.664L175.437 77.455C175.388 77.7579 175.349 78.0406 175.301 78.3561L178.95 76.2823L181.07 80.0173L177.337 82.1319L175.279 78.5024C175.226 78.9037 175.178 79.3075 175.15 79.696L176.719 82.4683L174.982 83.4417C174.989 83.7089 174.995 83.9762 175.007 84.2459L177.058 83.0817L179.173 86.8142L175.563 88.8575C175.787 89.9548 176.074 91.0384 176.422 92.103L177.288 93.6362L177.029 93.7789L177.323 94.4581L177.662 94.267L179.777 97.9995L179.309 98.2594C179.434 98.4655 179.561 98.6665 179.696 98.8649L180.131 98.6203L181.965 101.863C182.598 102.589 183.268 103.282 183.972 103.939L183.221 102.62L186.953 100.505L189.063 104.235L186.217 105.85C186.42 106.013 186.628 106.165 186.84 106.321L189.442 104.868L191.557 108.601L191.049 108.891L191.823 109.272L191.911 109.222L191.985 109.352C192.349 109.532 192.713 109.711 193.095 109.855L192.531 108.867L196.264 106.753L198.379 110.485L197.001 111.265C197.325 111.361 197.643 111.455 197.966 111.539L198.733 111.106L199.151 111.84L200.09 112.051L199.326 110.719L202.684 108.816L204.798 112.549L204.544 112.694C204.966 112.732 205.387 112.77 205.813 112.798L209.498 110.703L210.711 112.847L211.512 112.802L210.111 110.377L213.844 108.262L215.747 111.62L214.005 112.604C214.663 112.545 215.27 112.448 215.91 112.348L216.094 112.244L216.134 112.314L216.883 112.186L216.715 111.89L220.447 109.775L221.262 111.208L221.985 111.017L221.083 109.429L224.816 107.314L226.133 109.641L226.807 109.383L225.436 106.96L229.169 104.845L230.751 107.643L231.39 107.329L229.785 104.501L233.517 102.387L235.132 105.244L235.743 104.873L234.135 102.038L237.868 99.9229L239.297 102.444C239.493 102.302 239.684 102.157 239.875 102.012L238.489 99.5688L242.221 97.4542L243.24 99.2135C243.423 99.046 243.599 98.8811 243.779 98.7187L242.855 97.0874L246.587 94.9728L246.931 95.5508C247.104 95.3657 247.267 95.1757 247.435 94.9881L247.233 94.6312L248.208 94.0808C248.617 93.5842 249.02 93.0851 249.408 92.5785L246.879 94.0104L244.976 90.6524L248.668 88.5178L250.268 91.343C250.423 91.1302 250.576 90.91 250.726 90.6947L249.289 88.1637L253.021 86.0491L253.294 86.5292C253.419 86.2763 253.543 86.0234 253.668 85.7705L253.622 85.685L253.75 85.6162C253.94 85.2318 254.127 84.8525 254.313 84.4731L253.268 85.0642L251.153 81.3317L254.886 79.2171L255.823 80.8735C255.933 80.5753 256.037 80.2746 256.133 79.9765L255.507 78.863L256.693 78.1904C256.782 77.8696 256.868 77.5413 256.95 77.2231L255.16 78.227L253.045 74.4945L256.791 72.405L257.649 73.9282C257.715 73.5395 257.768 73.1508 257.819 72.7546L257.414 72.0459L257.922 71.7554C257.948 71.4729 257.974 71.1903 257.99 70.9027ZM191.336 56.9145L189.221 53.182L192.954 51.0674L195.068 54.7999L191.336 56.9145ZM195.694 54.4483L193.58 50.7158L197.312 48.6012L199.427 52.3337L195.694 54.4483ZM200.053 51.9821L197.938 48.2496L201.67 46.135L203.785 49.8675L200.053 51.9821ZM204.411 49.5159L202.294 45.7884L206.026 43.6738L208.143 47.4012L204.411 49.5159ZM208.767 47.0547L206.617 43.33L210.349 41.2153L212.464 44.9478L208.767 47.0547ZM185.123 66.2051L182.968 62.4905L186.701 60.3759L188.818 64.1034L185.123 66.2051ZM189.479 63.744L187.327 60.0243L191.059 57.9097L193.174 61.6422L189.479 63.744ZM193.837 61.2777L191.685 57.5581L195.417 55.4435L197.532 59.176L193.837 61.2777ZM198.196 58.8115L196.043 55.0918L199.776 52.9772L201.89 56.7097L198.196 58.8115ZM202.554 56.3453L200.402 52.6256L204.134 50.511L206.249 54.2435L202.554 56.3453ZM206.912 53.8791L204.758 50.1644L208.49 48.0498L210.607 51.7773L206.912 53.8791ZM211.271 51.4128L209.154 47.6854L212.886 45.5708L215.003 49.2982L211.271 51.4128ZM215.627 48.9517L213.512 45.2192L217.245 43.1046L219.359 46.8371L215.627 48.9517ZM219.985 46.4855L217.87 42.753L221.603 40.6383L223.718 44.3709L219.985 46.4855ZM179.222 75.2972L177.107 71.5647L180.465 69.6616L182.58 73.3941L179.222 75.2972ZM183.201 73.04L181.086 69.3075L184.819 67.1929L186.933 70.9254L183.201 73.04ZM187.559 70.5738L185.442 66.8463L189.175 64.7317L191.292 68.4592L187.559 70.5738ZM191.915 68.1126L189.8 64.3801L193.533 62.2655L195.647 65.998L191.915 68.1126ZM196.273 65.6464L194.159 61.9139L197.891 59.7993L200.006 63.5318L196.273 65.6464ZM200.632 63.1802L198.517 59.4476L202.25 57.333L204.364 61.0655L200.632 63.1802ZM204.99 60.7139L202.876 56.9814L206.608 54.8668L208.723 58.5993L204.99 60.7139ZM209.348 58.2477L207.231 54.5203L210.964 52.4057L213.081 56.1331L209.348 58.2477ZM213.707 55.7815L211.59 52.054L215.322 49.9394L217.414 53.6292L213.707 55.7815ZM218.063 53.3203L215.948 49.5878L219.681 47.4732L221.795 51.2057L218.063 53.3203ZM222.421 50.8541L220.307 47.1216L224.039 45.007L226.154 48.7395L222.421 50.8541ZM226.779 48.3879L224.624 44.6102L228.357 42.4956L230.469 46.2332L226.779 48.3879ZM231.138 45.9216L229.023 42.1891L232.756 40.0745L234.87 43.807L231.138 45.9216ZM181.691 79.6506L179.576 75.9181L182.944 74.0199L185.059 77.7524L181.691 79.6506ZM185.68 77.3983L183.565 73.6658L187.303 71.5537L189.417 75.2862L185.68 77.3983ZM190.038 74.9321L187.921 71.2046L191.658 69.0925L193.775 72.82L190.038 74.9321ZM194.399 72.4608L192.284 68.7283L196.017 66.6263L198.131 70.3588L194.399 72.4608ZM198.757 69.9946L196.643 66.2621L200.375 64.1475L202.49 67.88L198.757 69.9946ZM203.116 67.5283L201.001 63.7958L204.728 61.6787L206.848 65.4137L203.116 67.5283ZM207.474 65.0621L205.359 61.3296L209.087 59.2125L211.206 62.9475L207.474 65.0621ZM211.832 62.5959L209.715 58.8684L213.448 56.7538L215.565 60.4813L211.832 62.5959ZM216.191 60.1297L214.074 56.4022L217.801 54.2851L219.923 58.0151L216.191 60.1297ZM220.547 57.6685L218.432 53.936L222.159 51.8189L224.274 55.5514L220.547 57.6685ZM224.905 55.2023L222.79 51.4698L226.518 49.3527L228.632 53.0852L224.905 55.2023ZM229.263 52.7361L227.091 48.9686L230.818 46.8515L232.93 50.589L229.263 52.7361ZM233.622 50.2698L231.507 46.5373L235.235 44.4202L237.349 48.1527L233.622 50.2698ZM237.98 47.8036L235.863 44.0762L239.59 41.9591L241.708 45.6865L237.98 47.8036ZM179.877 86.4949L177.762 82.7624L181.495 80.6478L183.513 84.3455L179.877 86.4949ZM184.235 84.0287L182.126 80.2986L185.484 78.3955L187.593 82.1255L184.235 84.0287ZM188.219 81.7739L186.008 78.0066L189.736 75.8895L191.85 79.6221L188.219 81.7739ZM192.577 79.3077L190.364 75.5455L194.092 73.4284L196.209 77.1558L192.577 79.3077ZM196.936 76.8415L194.723 73.0793L198.45 70.9622L200.567 74.6896L196.936 76.8415ZM201.292 74.3803L199.081 70.613L202.808 68.4959L204.923 72.2284L201.292 74.3803ZM205.65 71.9141L203.439 68.1468L207.167 66.0297L209.286 69.7395L205.65 71.9141ZM210.008 69.4478L207.798 65.6806L211.525 63.5635L213.64 67.296L210.008 69.4478ZM214.367 66.9816L212.154 63.2194L215.881 61.1023L217.998 64.8298L214.367 66.9816ZM218.725 64.5154L216.522 60.733L220.249 58.6159L222.341 62.3435L218.725 64.5154ZM223.081 62.0542L220.87 58.287L224.598 56.1699L226.715 59.8973L223.081 62.0542ZM227.439 59.588L225.325 55.8555L229.057 53.7409L231.172 57.4734L227.439 59.588ZM231.798 57.1218L229.552 53.3245L233.284 51.2099L235.396 54.9474L231.798 57.1218ZM236.156 54.6556L234.042 50.923L237.774 48.8084L239.889 52.5409L236.156 54.6556ZM240.515 52.1893L238.397 48.4619L242.13 46.3473L244.247 50.0747L240.515 52.1893ZM177.916 93.2921L175.802 89.5596L179.534 87.445L181.649 91.1775L177.916 93.2921ZM182.275 90.8259L180.16 87.0934L183.893 84.9788L186.007 88.7113L182.275 90.8259ZM186.633 88.3597L184.508 84.6222L187.866 82.7191L189.981 86.4516L186.633 88.3597ZM190.617 86.1049L188.502 82.3724L192.23 80.2553L194.344 83.9878L190.617 86.1049ZM194.975 83.6387L192.863 79.9138L196.591 77.7967L198.708 81.5241L194.975 83.6387ZM199.334 81.1725L197.217 77.445L200.949 75.3304L203.066 79.0579L199.334 81.1725ZM203.69 78.7113L201.575 74.9788L205.308 72.8642L207.422 76.5967L203.69 78.7113ZM208.048 76.2451L205.913 72.4774L209.64 70.3603L211.753 74.0979L208.048 76.2451ZM212.406 73.7789L210.292 70.0464L214.024 67.9318L216.139 71.6643L212.406 73.7789ZM216.765 71.3126L214.65 67.5801L218.38 65.4706L220.497 69.198L216.765 71.3126ZM221.123 68.8464L218.963 65.0789L222.695 62.9643L224.808 66.7018L221.123 68.8464ZM225.479 66.3853L223.364 62.6528L227.097 60.5381L229.214 64.2656L225.479 66.3853ZM229.837 63.919L227.723 60.1865L231.455 58.0719L233.57 61.8044L229.837 63.919ZM234.196 61.4528L232.018 57.6828L235.75 55.5682L237.863 59.3058L234.196 61.4528ZM238.554 58.9866L236.44 55.2541L240.172 53.1395L242.287 56.872L238.554 58.9866ZM242.913 56.5204L240.795 52.7929L244.528 50.6783L246.645 54.4058L242.913 56.5204ZM247.271 54.0541L245.073 50.2868L248.805 48.1722L250.917 51.9098L247.271 54.0541ZM180.385 97.6455L178.27 93.913L182.003 91.7983L184.118 95.5308L180.385 97.6455ZM184.743 95.1792L182.629 91.4467L186.361 89.3321L188.476 93.0646L184.743 95.1792ZM189.102 92.713L186.987 88.9805L190.345 87.0774L192.46 90.8099L189.102 92.713ZM193.081 90.4558L190.966 86.7233L194.699 84.6086L196.813 88.3412L193.081 90.4558ZM197.439 87.9895L195.322 84.2621L199.054 82.1475L201.172 85.8749L197.439 87.9895ZM201.795 85.5284L199.68 81.7959L203.413 79.6813L205.53 83.4087L201.795 85.5284ZM206.153 83.0621L204.039 79.3296L207.771 77.215L209.886 80.9475L206.153 83.0621ZM210.512 80.5959L208.374 76.8333L212.107 74.7187L214.219 78.4562L210.512 80.5959ZM214.87 78.1297L212.755 74.3972L216.488 72.2826L218.603 76.0151L214.87 78.1297ZM219.228 75.6635L217.114 71.931L220.844 69.8214L222.961 73.5489L219.228 75.6635ZM223.587 73.1972L221.429 69.4373L225.162 67.3226L227.274 71.0602L223.587 73.1972ZM227.943 70.7361L225.828 67.0036L229.561 64.889L231.675 68.6215L227.943 70.7361ZM232.301 68.2699L230.186 64.5374L233.919 62.4227L236.034 66.1553L232.301 68.2699ZM236.659 65.8036L234.484 62.0412L238.217 59.9266L240.329 63.6642L236.659 65.8036ZM241.018 63.3374L238.903 59.6049L242.636 57.4903L244.75 61.2228L241.018 63.3374ZM245.376 60.8712L243.259 57.1437L246.994 55.0241L249.109 58.7566L245.376 60.8712ZM249.735 58.405L247.539 54.6452L251.272 52.5306L253.384 56.2681L249.735 58.405ZM182.864 101.979L180.749 98.246L184.482 96.1314L186.596 99.8639L182.864 101.979ZM187.222 99.5123L185.108 95.7798L188.84 93.6652L190.955 97.3977L187.222 99.5123ZM191.581 97.0461L189.466 93.3136L192.824 91.4104L194.939 95.143L191.581 97.0461ZM195.559 94.7888L193.404 91.0616L197.137 88.947L199.252 92.6795L195.559 94.7888ZM199.918 92.3226L197.77 88.5802L201.503 86.4656L203.63 90.2107L199.918 92.3226ZM204.276 89.8564L202.119 86.1342L205.851 84.0196L207.968 87.7471L204.276 89.8564ZM208.632 87.3952L206.477 83.668L210.21 81.5534L212.324 85.2859L208.632 87.3952ZM212.99 84.929L210.84 81.1917L214.573 79.0771L216.685 82.8146L212.99 84.929ZM217.349 82.4628L215.194 78.7356L218.926 76.6209L221.041 80.3535L217.349 82.4628ZM221.707 79.9966L219.552 76.2693L223.285 74.1547L225.399 77.8872L221.707 79.9966ZM226.065 77.5303L223.911 73.8031L227.643 71.6885L229.74 75.4186L226.065 77.5303ZM230.424 75.0641L228.266 71.3419L231.999 69.2273L234.116 72.9548L230.424 75.0641ZM234.78 72.6029L232.625 68.8757L236.342 66.7284L238.457 70.4609L234.78 72.6029ZM239.138 70.1367L236.95 66.3996L240.683 64.285L242.795 68.0226L239.138 70.1367ZM243.496 67.6705L241.382 63.938L245.114 61.8234L247.229 65.5559L243.496 67.6705ZM247.855 65.2043L245.738 61.4768L249.397 59.3324L251.512 63.0649L247.855 65.2043ZM252.213 62.7381L250.005 59.0036L253.738 56.889L255.85 60.6265L252.213 62.7381ZM189.676 103.883L187.561 100.151L191.294 98.0363L193.403 101.766L189.676 103.883ZM194.034 101.417L191.92 97.6846L195.278 95.7815L197.392 99.514L194.034 101.417ZM198.013 99.1599L195.898 95.4274L199.631 93.3128L201.746 97.0453L198.013 99.1599ZM202.371 96.6937L200.252 92.9461L203.984 90.8315L206.101 94.5589L202.371 96.6937ZM206.73 94.2275L204.613 90.5L208.345 88.3854L210.462 92.1128L206.73 94.2275ZM211.086 91.7663L208.971 88.0338L212.704 85.9192L214.818 89.6517L211.086 91.7663ZM215.444 89.3001L213.307 85.55L217.039 83.4354L219.151 87.173L215.444 89.3001ZM219.802 86.8338L217.688 83.1013L221.42 80.9867L223.535 84.7192L219.802 86.8338ZM224.161 84.3676L222.046 80.6351L225.753 78.4828L227.863 82.2128L224.161 84.3676ZM228.519 81.9014L226.362 78.154L230.094 76.0394L232.201 79.7745L228.519 81.9014ZM232.878 79.4352L230.76 75.7077L234.493 73.5931L236.605 77.3181L232.878 79.4352ZM237.233 76.974L235.119 73.2415L238.808 71.0868L240.918 74.8168L237.233 76.974ZM241.592 74.5078L239.417 70.758L243.149 68.6434L245.256 72.3784L241.592 74.5078ZM245.95 72.0416L243.836 68.3091L247.568 66.1944L249.678 69.9245L245.95 72.0416ZM250.309 69.5753L248.191 65.8479L251.926 63.7282L254.036 67.4582L250.309 69.5753ZM192.21 108.269L190.096 104.537L193.823 102.419L195.938 106.152L192.21 108.269ZM196.569 105.803L194.454 102.07L197.736 100.13L199.851 103.862L196.569 105.803ZM200.547 103.546L198.433 99.8131L202.165 97.6985L204.28 101.431L200.547 103.546ZM204.906 101.079L202.718 97.3045L206.448 95.1949L208.56 98.9199L204.906 101.079ZM209.264 98.6132L207.147 94.8857L210.88 92.7711L212.992 96.4961L209.264 98.6132ZM213.623 96.147L211.506 92.4195L215.233 90.3024L217.348 94.0349L213.623 96.147ZM217.978 93.6858L215.773 89.9084L219.526 87.8038L221.635 91.5338L217.978 93.6858ZM222.337 91.2196L220.222 87.4871L223.95 85.37L226.064 89.1025L222.337 91.2196ZM226.695 88.7533L224.581 85.0208L228.214 82.8387L230.329 86.5712L226.695 88.7533ZM231.054 86.2871L228.828 82.5124L232.555 80.3953L234.667 84.1328L231.054 86.2871ZM235.412 83.8209L233.295 80.0934L237.022 77.9763L239.139 81.7038L235.412 83.8209ZM239.768 81.3597L237.658 77.6297L241.269 75.4427L243.384 79.1752L239.768 81.3597ZM244.126 78.8935L241.883 75.1164L245.61 72.9993L247.722 76.7368L244.126 78.8935ZM248.485 76.4273L246.37 72.6948L250.097 70.5777L252.212 74.3102L248.485 76.4273ZM252.843 73.9611L250.726 70.2336L254.461 68.1139L256.576 71.8464L252.843 73.9611ZM244.454 91.0488L246.357 94.4068L242.624 96.5214L240.721 93.1634L244.454 91.0488ZM240.098 93.5099L242.001 96.8679L238.269 98.9825L236.221 95.585L240.098 93.5099ZM235.638 95.9263L237.542 99.2843L233.809 101.399L231.906 98.0409L235.638 95.9263ZM231.28 98.3925L233.183 101.751L229.451 103.865L227.547 100.507L231.28 98.3925ZM226.922 100.859L228.825 104.217L225.092 106.331L223.166 102.981L226.922 100.859ZM222.568 103.315L224.471 106.673L220.739 108.787L218.836 105.429L222.568 103.315ZM218.21 105.781L220.115 109.134L216.383 111.249L214.477 107.896L218.21 105.781ZM250.565 81.6831L252.68 85.4156L248.947 87.5302L246.81 83.8306L250.565 81.6831ZM246.207 84.1493L248.321 87.8818L244.589 89.9964L242.474 86.2639L246.207 84.1493ZM241.848 86.6155L243.966 90.343L240.233 92.4702L238.116 88.7428L241.848 86.6155ZM237.49 89.0818L239.6 92.8496L235.867 94.9642L233.755 91.2266L237.49 89.0818ZM233.134 91.5429L235.249 95.2754L231.516 97.39L229.402 93.6575L233.134 91.5429ZM228.776 94.0092L230.89 97.7417L227.158 99.8563L225.043 96.1238L228.776 94.0092ZM224.417 96.4754L226.532 100.208L222.805 102.325L220.685 98.59L224.417 96.4754ZM220.059 98.9416L222.174 102.674L218.441 104.789L216.327 101.056L220.059 98.9416ZM215.701 101.408L217.818 105.135L214.085 107.25L211.968 103.522L215.701 101.408ZM211.345 103.869L213.515 107.654L209.788 109.771L207.65 106.021L211.345 103.869ZM206.986 106.335L209.101 110.068L205.374 112.185L203.259 108.452L206.986 106.335ZM198.926 110.089L196.811 106.356L200.164 104.451L202.279 108.183L198.926 110.089ZM202.905 107.832L200.79 104.099L204.518 101.982L206.632 105.714L202.905 107.832ZM207.263 105.365L205.184 101.663L208.909 99.5508L211.026 103.278L207.263 105.365ZM211.622 102.899L209.515 99.1892L213.242 97.0721L215.359 100.8L211.622 102.899ZM215.977 100.438L213.873 96.723L217.626 94.5931L219.74 98.3256L215.977 100.438ZM220.336 97.9717L218.229 94.2618L221.956 92.1447L224.071 95.8772L220.336 97.9717ZM224.694 95.5054L222.575 91.7704L226.307 89.6558L228.422 93.3883L224.694 95.5054ZM229.053 93.0392L226.948 89.3243L230.681 87.1971L232.795 90.9296L229.053 93.0392ZM233.411 90.573L231.299 86.8733L235.027 84.7562L237.134 88.4912L233.411 90.573ZM237.769 88.1068L235.662 84.3969L239.395 82.2823L241.512 86.0098L237.769 88.1068ZM242.125 85.6456L240.021 81.9307L243.736 79.8011L245.85 83.5336L242.125 85.6456ZM246.484 83.1794L244.369 79.4847L248.102 77.3701L250.189 81.0952L246.484 83.1794ZM254.564 78.5936L250.837 80.7107L248.717 76.9757L252.45 74.8611L254.564 78.5936Z" fill="url(#paint0_linear_1_217)"/>
<path d="M241.4 105.919C240.32 105.071 239.308 104.139 238.373 103.133C236.87 104.198 235.315 105.188 233.713 106.097C212.798 117.924 188.214 113.994 178.734 97.2842C170.064 82.0301 176.991 61.4557 194.104 48.9625C193.178 47.9787 192.365 46.8949 191.68 45.7311C172.461 59.6512 164.659 82.7044 174.327 99.7456C184.895 118.393 212.342 122.791 235.662 109.579C237.642 108.468 239.558 107.246 241.4 105.919V105.919Z" fill="#352E35"/>
<path d="M198.023 46.3551L195.387 43.2459C192.729 44.8883 190.205 46.7386 187.839 48.7794L190.465 51.8835C192.819 49.8247 195.348 47.9749 198.023 46.3551V46.3551Z" fill="#D1D1D1"/>
<path d="M235.436 105.036L238.067 108.143C240.711 106.477 243.221 104.608 245.574 102.551L242.939 99.4422C240.607 101.523 238.096 103.395 235.436 105.036V105.036Z" fill="#D1D1D1"/>
<g style="mix-blend-mode:soft-light">
<path d="M255.393 53.5559C264.715 69.999 256.258 92.5163 236.523 104.604C237.079 104.325 237.627 104.029 238.167 103.717C258.609 92.1598 266.488 69.5903 256.936 52.7073C247.384 35.8242 222.584 32.8685 205.256 41.2954C200.045 43.8447 195.134 46.9652 190.613 50.5994C192.942 49.0755 201.756 43.1161 208.439 40.6642C227.169 33.7573 247.039 38.8346 255.393 53.5559Z" fill="white"/>
</g>
<path d="M175.953 99.0756C166.201 81.8735 176.141 64.4691 179.942 57.5982C169.329 69.8874 166.813 86.525 174.435 99.9368C182.781 114.661 201.587 119.603 217.677 115.972C208.272 117.095 184.689 114.488 175.953 99.0756Z" fill="#2B242A"/>
<path d="M150.342 119.96C150.027 120.109 149.665 120.128 149.336 120.013C149.007 119.898 148.736 119.658 148.583 119.344L144.379 111.93C144.188 111.637 144.12 111.281 144.191 110.939C144.262 110.597 144.465 110.297 144.757 110.104C145.072 109.953 145.434 109.933 145.764 110.048C146.093 110.164 146.364 110.405 146.516 110.72L150.717 118.127C150.908 118.42 150.976 118.777 150.906 119.12C150.836 119.463 150.633 119.765 150.342 119.96Z" fill="#2B242A"/>
<path d="M144.357 111.117L140.202 113.473L145.109 122.125L149.263 119.769L144.357 111.117Z" fill="#161013"/>
<path d="M145.448 122.734C145.132 122.885 144.769 122.905 144.439 122.789C144.108 122.674 143.837 122.432 143.684 122.117L139.483 114.709C139.292 114.416 139.224 114.059 139.294 113.716C139.364 113.373 139.567 113.071 139.858 112.876V112.876C140.175 112.727 140.537 112.708 140.867 112.825C141.197 112.941 141.468 113.184 141.619 113.499L145.821 120.906C146.011 121.199 146.078 121.555 146.008 121.897C145.938 122.238 145.737 122.539 145.448 122.734V122.734Z" fill="#2B242A"/>
</g>
<path d="M102.175 239.641C100.37 234.003 101.423 190.303 102.175 169.159L112.456 172.824C111.61 181.282 121.628 208.065 121.628 210.359C127.622 206.535 137.765 203.649 144.182 202.426C148.223 206.843 156.023 216.015 154.896 217.369C153.486 219.06 104.43 246.69 102.175 239.641Z" fill="#FF7CA6"/>
<mask id="mask0_1_217" style="mask-type:alpha" maskUnits="userSpaceOnUse" x="101" y="169" width="55" height="72">
<path d="M102.176 239.641C100.371 234.003 101.424 190.303 102.176 169.158L112.457 172.824C111.611 181.281 121.629 208.065 121.629 210.359C127.623 206.535 137.766 203.649 144.184 202.426C148.225 206.843 156.025 216.015 154.897 217.369C153.487 219.06 104.431 246.689 102.176 239.641Z" fill="#FF7CA6"/>
</mask>
<g mask="url(#mask0_1_217)">
<path d="M98.793 243.588C96.9887 237.95 98.0412 194.251 98.793 173.106L109.074 176.771C108.228 185.229 118.246 212.012 118.246 214.307C124.24 210.483 134.384 207.596 140.801 206.374C144.842 210.79 152.642 219.963 151.514 221.316C150.104 223.007 101.048 250.637 98.793 243.588Z" fill="#FB94B5"/>
<path d="M97.1015 249.227C95.2972 243.588 96.3497 199.889 97.1015 178.744L106.819 174.797C105.973 183.255 116.555 217.651 116.555 219.945C122.549 216.121 132.692 213.234 139.109 212.012C143.15 216.429 150.95 225.601 149.823 226.954C148.413 228.646 99.357 256.275 97.1015 249.227Z" fill="#FFAFC9"/>
<path d="M102.872 183.255C103.098 181.676 102.027 176.77 101.463 174.515L93.2867 239.923C97.3277 241.145 105.804 243.701 107.383 244.152C109.357 244.716 123.527 235.548 121.48 235.694C113.586 236.258 104.846 239.641 104 238.513C103.154 237.386 103.436 235.412 103.436 231.747C103.436 228.804 103.154 214.267 102.872 212.012C102.59 209.756 102.872 204.118 102.872 202.708C102.872 201.298 102.59 185.228 102.872 183.255Z" fill="#FEF2F7"/>
</g>
<path d="M160.032 482.647C153.462 474.551 166.516 378.684 173.864 331.763C187.829 326.525 202.729 309.574 208.433 301.753C208.532 303.068 210.373 308.005 216.947 317.228C223.521 326.452 227.633 335.703 228.868 339.176C229.89 372.328 212.661 431.325 203.919 456.68C230.97 459.027 261.562 488.372 273.725 503.098L267.598 523.984C263.736 521.366 249.629 513.561 224.105 503.278C192.2 490.425 168.245 492.767 160.032 482.647Z" fill="url(#paint1_linear_1_217)"/>
<mask id="mask1_1_217" style="mask-type:alpha" maskUnits="userSpaceOnUse" x="158" y="301" width="116" height="223">
<path d="M160.032 482.647C153.462 474.551 166.516 378.684 173.864 331.763C187.829 326.525 202.729 309.574 208.433 301.753C208.532 303.068 210.373 308.005 216.947 317.228C223.521 326.452 227.633 335.703 228.868 339.176C229.89 372.328 212.661 431.325 203.919 456.68C230.97 459.027 261.562 488.372 273.725 503.098L267.598 523.984C263.736 521.366 249.629 513.561 224.105 503.278C192.2 490.425 168.245 492.767 160.032 482.647Z" fill="#F89AB8"/>
</mask>
<g mask="url(#mask1_1_217)">
<path d="M153.286 488.31C146.716 480.214 159.77 384.347 167.118 337.426C181.083 332.188 193.947 312.989 199.651 305.168C199.75 306.483 203.627 313.668 210.201 322.891C216.775 332.115 209.019 333.797 210.253 337.27C211.246 369.477 207.949 427.644 199.627 454.31C198.894 455.542 198.782 456.865 198.6 457.663C198.555 457.861 198.595 458.073 198.735 458.22C199.204 458.715 200.314 459.811 201.057 459.944C228.985 464.354 273.258 505.746 285.009 519.973L260.852 529.647C256.99 527.029 242.884 519.224 217.36 508.941C185.455 496.088 161.499 498.43 153.286 488.31Z" fill="#FBC6D7"/>
<mask id="mask2_1_217" style="mask-type:alpha" maskUnits="userSpaceOnUse" x="151" y="305" width="135" height="225">
<path d="M153.286 488.31C146.716 480.214 159.77 384.347 167.118 337.426C181.083 332.188 193.947 312.989 199.651 305.168C199.75 306.483 203.627 313.668 210.201 322.891C216.775 332.115 209.019 333.797 210.253 337.27C211.246 369.477 207.949 427.644 199.627 454.31C198.894 455.542 198.782 456.865 198.6 457.663C198.555 457.861 198.595 458.073 198.735 458.22C199.204 458.715 200.314 459.811 201.057 459.944C228.985 464.354 273.258 505.746 285.009 519.973L260.852 529.647C256.99 527.029 242.884 519.224 217.36 508.941C185.455 496.088 161.499 498.43 153.286 488.31Z" fill="#FBC6D7"/>
</mask>
<g mask="url(#mask2_1_217)">
<path d="M192.452 436.574C198.216 393.418 187.423 354.268 192.763 349.738C216.022 414.31 285.51 518.449 280.764 515.76L270.614 515.796C264.626 496.928 206.466 474.585 195.712 463.346C191.582 459.03 191.44 442.687 192.452 436.574Z" fill="#FEB3CB"/>
</g>
<path d="M175.645 371.791C178.995 362.531 182.852 337.557 181.398 325.533C157.781 343.38 152.039 470.553 152.077 480.984C152.107 489.329 217.654 527.641 250.424 545.754L279.948 523.939C266.943 513.93 216.634 495.129 210.754 490.639C203.403 485.027 172.102 483.167 168.419 478.388C164.737 473.608 168.321 451.322 168.268 436.662C168.215 422.002 171.458 383.365 175.645 371.791Z" fill="#FEF2F7"/>
</g>
<path d="M176.184 345.365L143.48 311.815C102.6 349.03 95.5514 381.17 87.6573 395.831C79.7633 410.491 82.0187 406.544 75.5343 427.971C69.0499 449.398 43.6761 505.22 44.24 514.242C44.6911 521.459 55.7052 521.76 61.1558 521.008C109.197 449.736 113.971 425.528 109.93 422.05C142.634 401.3 167.444 362.093 176.184 345.365Z" fill="#FF7CA6"/>
<mask id="mask3_1_217" style="mask-type:alpha" maskUnits="userSpaceOnUse" x="44" y="311" width="133" height="211">
<path d="M176.184 345.365L143.48 311.815C102.6 349.03 95.5514 381.17 87.6573 395.831C79.7633 410.491 82.0187 406.544 75.5343 427.971C69.0499 449.398 43.6761 505.22 44.24 514.242C44.6911 521.459 55.7052 521.76 61.1558 521.008C109.197 449.736 113.971 425.528 109.93 422.05C142.634 401.3 167.444 362.093 176.184 345.365Z" fill="#FF7CA6"/>
</mask>
<g mask="url(#mask3_1_217)">
<path d="M170.545 345.365L137.841 311.815C96.9612 349.03 89.9129 381.17 82.0188 395.831C74.1248 410.491 76.3802 406.544 69.8958 427.971C63.4114 449.398 38.0376 505.22 38.6015 514.242C39.0526 521.459 50.0667 521.76 55.5173 521.008C97.5708 458.619 103.839 436.805 104.846 424.87C104.989 423.17 106.256 421.487 105.974 419.795C107.409 418.884 109.648 418.225 111.048 417.258C141.55 396.171 162.189 361.359 170.545 345.365Z" fill="#FEB3CB"/>
<path d="M158.977 329.013L134.458 307.869C93.5782 345.083 86.5299 377.223 78.6358 391.884C70.7418 406.544 72.9972 402.597 66.5128 424.024C60.0284 445.451 34.6546 501.273 35.2185 510.295C35.6696 517.512 47.8022 519.223 53.2528 518.471C70.7325 491.405 96.791 435.959 97.7979 424.024C97.9412 422.325 99.2075 420.641 98.9256 418.949C100.361 418.039 106.265 414.279 107.665 413.311C138.167 392.224 150.621 345.007 158.977 329.013Z" fill="#FBC6D7"/>
<path d="M115.56 353.823C118.041 350.666 137.457 326.758 146.854 315.199C145.633 313.131 142.231 309.335 138.397 310.688C133.604 312.379 117.252 322.529 92.4418 345.929C67.6319 369.33 35.2099 510.013 33.5183 513.678C32.165 516.61 40.4726 517.531 44.7955 517.625C52.7836 497.044 69.4363 454.303 72.1428 447.988C75.526 440.094 85.6755 409.082 87.0851 405.417C88.4948 401.752 112.459 357.77 115.56 353.823Z" fill="#FEF2F7"/>
</g>
<path d="M184.068 392.447C158.581 359.067 132.286 339.068 122.325 333.242C123.678 328.956 135.858 317.36 141.778 312.097C164.558 350.44 196.191 325.066 209.16 307.586C240.285 324.953 231.714 365.57 223.538 383.707C214.422 387.467 196.191 394.477 196.191 392.447V373.84C192.356 379.253 186.511 388.5 184.068 392.447Z" fill="url(#paint2_linear_1_217)"/>
<mask id="mask4_1_217" style="mask-type:alpha" maskUnits="userSpaceOnUse" x="122" y="307" width="110" height="86">
<path d="M184.068 392.447C158.581 359.067 132.286 339.068 122.325 333.242C123.678 328.956 135.858 317.36 141.778 312.097C164.558 350.44 196.191 325.066 209.16 307.586C240.285 324.953 231.714 365.57 223.538 383.707C214.422 387.467 196.191 394.477 196.191 392.447V373.84C192.356 379.253 186.511 388.5 184.068 392.447Z" fill="url(#paint3_linear_1_217)"/>
</mask>
<g mask="url(#mask4_1_217)">
<path d="M120.916 325.348C130.632 332.498 136.791 335.46 153.056 352.131C171.381 367.356 183.349 381.312 187.451 385.399C194.245 392.169 192.075 390.143 192.526 391.884C210.006 387.373 224.046 382.129 232.842 375.814" stroke="white" stroke-opacity="0.5" stroke-width="0.563862"/>
<path d="M202.111 313.516C208.689 312.953 231.432 336.917 212.824 391.893" stroke="white" stroke-opacity="0.49" stroke-width="0.563862"/>
<path d="M193.653 342.546C192.525 347.902 185.571 350.722 181.812 351.849V347.62C185.195 349.199 189.988 346.493 193.653 342.546Z" fill="url(#paint4_linear_1_217)"/>
<path d="M154.464 337.189C161.982 340.76 180.007 345.76 191.961 337.189C189.424 344.331 178.372 354.33 154.464 337.189Z" fill="url(#paint5_linear_1_217)"/>
<path d="M207.186 306.851C211.401 309.199 218.562 321.334 221.283 340.854C222.421 349.022 225.991 356.629 223.82 365.946C222.039 373.588 217.651 385.378 212.543 393.122L244.965 379.871C242.897 357.317 236.62 311.137 228.049 306.851C219.478 302.566 210.569 305.066 207.186 306.851Z" fill="#647B64" fill-opacity="0.5"/>
<path d="M127.964 332.114C131.629 336.061 149.39 352.413 149.109 354.951L119.788 332.96L122.607 323.374L141.496 309.278C147.135 312.003 157.623 318.3 154.465 321.683C151.308 325.066 146.759 321.401 144.88 319.146C139.241 321.683 138.113 321.683 136.14 323.374C134.166 328.731 127.964 331.55 127.964 332.114Z" fill="url(#paint6_linear_1_217)"/>
</g>
<path d="M199.371 254.301C201.176 274.826 208.581 300.068 212.058 310.124C177.381 358.898 145.804 328.449 142.421 317.454C139.715 308.658 139.978 274.131 140.448 257.967C132.836 254.301 117.329 234.848 129.17 225.263C138.643 217.594 156.249 202.99 165.459 194.814H181.247C199.855 208.629 197.116 228.646 199.371 254.301Z" fill="url(#paint7_linear_1_217)"/>
<mask id="mask5_1_217" style="mask-type:alpha" maskUnits="userSpaceOnUse" x="124" y="194" width="89" height="143">
<path d="M199.372 254.301C201.177 274.826 208.582 300.068 212.059 310.124C177.382 358.898 145.806 328.449 142.422 317.454C139.716 308.658 139.979 274.131 140.449 257.967C132.837 254.301 117.331 234.848 129.172 225.263C138.645 217.594 156.251 202.99 165.46 194.814H181.248C199.856 208.629 197.117 228.646 199.372 254.301Z" fill="url(#paint8_linear_1_217)"/>
</mask>
<g mask="url(#mask5_1_217)">
<path d="M185.759 216.803C185.759 230.037 175.925 236.822 163.418 236.822C150.91 236.822 138.959 226.094 138.959 212.86C138.959 199.626 148.793 192.841 161.301 192.841C173.808 192.841 185.759 203.569 185.759 216.803Z" fill="#647B64"/>
<path d="M183.65 216.062C183.65 228.109 174.526 234.285 162.923 234.285C151.32 234.285 138.959 223.674 138.959 211.627C138.959 199.581 148.082 193.405 159.686 193.405C171.289 193.405 183.65 204.016 183.65 216.062Z" fill="#647B64"/>
<path d="M145.162 275.931C146.739 269.505 137.359 259.517 135.012 256.839L130.501 316.178L137.259 324.784C146.552 322.202 139.619 308.637 145.162 296.873C148.541 289.701 143.191 283.964 145.162 275.931Z" fill="url(#paint9_linear_1_217)"/>
<path d="M150.777 285.878C152.75 295.37 145.42 307.869 168.82 322.529C154.16 322.529 143.785 316.101 150.777 285.878Z" fill="url(#paint10_linear_1_217)"/>
<path d="M152.649 290.181C154.079 293.133 152.751 297.835 161.543 300.719C156.801 301.925 152.909 300.67 152.649 290.181Z" fill="url(#paint11_linear_1_217)"/>
<path d="M189.269 232.234C189.269 223.776 189.099 214.845 183.471 207.501C188.065 209.183 194.625 220.392 189.269 232.234Z" fill="url(#paint12_linear_1_217)"/>
<path d="M139.523 257.967C146.998 256.814 150.8 258.812 163.02 251.482C160.995 253.726 142.342 271.217 139.523 257.967Z" fill="#647B64"/>
<path d="M235.38 288.013C230.176 298.434 221.805 288.013 212.19 288.013C194.656 265.927 197.807 238.913 194.656 219.505C185.324 186.092 157.043 199.384 144.034 190.889C152.33 184.187 184.928 177.455 194.656 186.516C206.817 197.843 235.38 275.837 235.38 288.013Z" fill="#647B64"/>
<path d="M123.171 235.114L134.448 210.022L141.215 213.611L139.241 218.779C137.478 222.625 133.549 228.713 128.528 232.047C125.99 232.047 127.813 242.592 127.118 243.008C125.921 243.724 124.066 234.718 123.171 235.114Z" fill="url(#paint13_linear_1_217)"/>
</g>
<path d="M303.307 511.731L297.375 508.652C288.326 578.886 264.641 578.126 255.02 568.293C279.092 598.091 297.767 538.817 298.047 538.252C304.555 529.207 307.277 517.92 307.536 511.716L303.307 511.731Z" fill="#CAF4F3"/>
<path d="M273.374 498.589C273.163 501.704 272.185 506.267 268.483 512.717C266.27 510.102 263.179 506.658 261.559 505.68C258.747 507.664 255.405 518.953 254.563 520.084C256.374 521.882 260.03 524.575 261.632 525.697C255.804 535.868 254.607 558.333 254.737 568.294C278.505 591.89 294.954 540.613 300.207 512.025C297.252 505.72 284.101 502.309 277.896 501.392L273.374 498.589Z" fill="#F6FEFD"/>
<path d="M257.934 558.787C260.19 561.043 265.546 563.298 272.595 558.787" stroke="#14D1A4" stroke-width="1.69158" stroke-linecap="round" stroke-linejoin="round"/>
<path d="M259.062 550.893C261.318 553.149 268.366 554.84 273.723 550.893" stroke="#14D1A4" stroke-width="1.69158" stroke-linecap="round" stroke-linejoin="round"/>
<path d="M261.318 543.563C263.053 545.028 266.957 546.664 272.595 543.563" stroke="#14D1A4" stroke-width="1.69158" stroke-linecap="round" stroke-linejoin="round"/>
<path d="M255.011 566.037C261.61 571.652 277.257 574.302 287.057 539.983" stroke="#CEF4F4" stroke-width="1.12772" stroke-linecap="round" stroke-linejoin="round"/>
<path d="M282.971 524.228C274.281 526.03 270.212 526.574 264.654 526.549C264.66 528.354 265.605 529.741 266.076 530.209C272.623 531.764 280.067 526.869 282.971 524.228Z" stroke="#14D1A4" stroke-width="0.563862" stroke-linecap="round"/>
<path d="M264.658 528.241C268.05 530.766 274.613 537.001 273.728 541.741C271.467 540.245 266.488 535.452 264.658 528.241Z" stroke="#14D1A4" stroke-width="0.563862"/>
<path d="M245.793 534.859C253.752 531.131 255.527 530.041 262.961 526.63C263.368 528.582 262.889 528.56 262.804 529.219C257.644 537.645 249.706 535.164 245.793 534.859Z" stroke="#14D1A4" stroke-width="0.563862" stroke-linecap="round"/>
<path d="M263.296 527.776C260.859 531.232 256.562 539.201 258.879 543.429C260.562 541.304 263.802 535.199 263.296 527.776Z" stroke="#14D1A4" stroke-width="0.563862"/>
<circle cx="264.091" cy="527.115" r="1.12772" transform="rotate(-0.207545 264.091 527.115)" fill="#14D1A4" stroke="#14D1A4" stroke-width="0.563862"/>
<path d="M21.1427 575.13C1.0462 579.554 1.87314 565.252 4.79867 557.548C9.29805 580.215 43.3159 565.793 59.7624 555.749C59.8156 556.729 59.8824 558.853 59.7235 559.51C59.5248 560.332 46.2633 569.599 21.1427 575.13Z" fill="#C5F4F2"/>
<path d="M57.5635 545.646C60.5142 538.238 61.8431 525.89 61.7092 520.444C59.3049 520.791 47.9733 517.32 43.0375 515.741C41.5804 521.77 35.444 532.759 32.6647 535.858C16.4157 542.604 7.31703 553.129 4.79881 557.547C2.1538 586.493 57.4833 561.579 59.4314 557.119C60.9898 553.551 58.8355 547.984 57.5635 545.646Z" fill="#F1FEFC"/>
<path d="M14.9091 546.945C16.5067 547.227 20.4913 548.919 23.6489 553.43" stroke="#14D1A4" stroke-width="1.69158" stroke-linecap="round" stroke-linejoin="round"/>
<path d="M22.2386 541.307C23.8362 541.589 27.8208 543.28 30.9784 547.791" stroke="#14D1A4" stroke-width="1.69158" stroke-linecap="round" stroke-linejoin="round"/>
<path d="M30.6969 536.232C32.2945 536.514 34.3056 536.796 37.4633 541.307" stroke="#14D1A4" stroke-width="1.69158" stroke-linecap="round" stroke-linejoin="round"/>
<path d="M45.3557 506.149L43.0376 515.741C47.36 522.818 56.0453 523.525 60.1879 522.786C60.6045 520.102 62.5935 515.633 63.5359 513.734C59.6063 507.911 49.7784 506.251 45.3557 506.149Z" fill="#F7FFFD"/>
<path d="M7.12386 557.529C7.9162 562.651 13.7559 571.372 30.7758 565.276" stroke="#AAFEE7" stroke-width="1.69158"/>
<path d="M51.3246 552.259C41.6463 556.301 35.9643 564.21 33.1188 567.583C35.7423 567.288 42.485 564.432 45.5284 563.04L51.3246 552.259Z" fill="#AAFEE7" stroke="#DAFFF5" stroke-width="0.563862"/>
<path d="M43.5148 517.535C47.3943 518.354 55.5433 520.822 57.1039 524.146C59.0546 528.3 45.6 524.095 43.5148 517.535Z" fill="white" stroke="#14D1A4" stroke-width="0.563862"/>
<path d="M43.387 517.886C45.1195 521.864 48.3115 530.533 47.2199 533.388C44.7305 531.333 40.4788 525.357 43.387 517.886Z" fill="white" stroke="#14D1A4" stroke-width="0.563862"/>
<path d="M42.5933 517.247C38.9381 515.71 30.834 513.099 27.6585 514.942C23.6892 517.246 37.1438 521.451 42.5933 517.247Z" stroke="#14D1A4" stroke-width="0.563862"/>
<path d="M42.4983 517.608C38.809 519.892 31.2482 525.2 30.5198 528.168C33.7361 527.897 40.6346 525.405 42.4983 517.608Z" stroke="#14D1A4" stroke-width="0.563862"/>
<path d="M44.0157 518.395C43.8203 518.939 43.5095 519.37 43.1792 519.63C42.8452 519.893 42.5295 519.958 42.2876 519.871C42.0457 519.784 41.8432 519.534 41.7528 519.118C41.6635 518.707 41.6974 518.177 41.8928 517.633C42.0882 517.088 42.3991 516.658 42.7294 516.397C43.0634 516.134 43.3791 516.069 43.6209 516.156C43.8628 516.243 44.0654 516.494 44.1557 516.909C44.245 517.32 44.2111 517.85 44.0157 518.395Z" fill="#14D1A4" stroke="#14D1A4" stroke-width="0.563862"/>
<path d="M166.427 165.326C179.484 180.904 171.867 196.759 166.427 199.801C150.973 221.464 140.115 200.315 136.451 189.058C134.453 179.017 137.65 173.297 143.779 167.456C149.907 161.614 160.099 159.849 166.427 165.326Z" fill="#FF7CA6"/>
<mask id="mask6_1_217" style="mask-type:alpha" maskUnits="userSpaceOnUse" x="136" y="161" width="39" height="49">
<path d="M166.991 165.147C180.047 180.794 172.431 196.72 166.991 199.776C151.537 221.536 140.367 200.202 136.703 188.894C134.705 178.809 138.214 173.154 144.342 167.286C150.471 161.418 160.663 159.645 166.991 165.147Z" fill="#FF7CA6"/>
</mask>
<g mask="url(#mask6_1_217)">
<path d="M164.05 166.903C178.147 181.282 171.952 194.708 166.542 197.746C151.173 219.371 138.103 197.532 134.46 186.294C132.472 176.271 133.691 185.044 142.59 181.791C160.949 175.079 163.205 165.212 164.05 166.903Z" fill="#FEB3CB"/>
<path d="M164.05 168.877C178.992 189.176 169.208 197.129 163.768 200.171C148.313 221.834 136.137 195.077 132.473 183.819C135.856 184.383 138.673 189.306 147.698 184.665C157.565 179.59 157.565 181 164.05 168.877Z" fill="#FBC6D7"/>
<path d="M162.989 177.592C162.26 175.178 162.509 170.358 164.319 171.355C165.369 171.355 166.619 176.712 166.619 176.712C168.556 181.941 169.807 191.502 167.717 193.123C164.539 189.415 162.856 187.262 155.19 186.921C151.851 182.41 164.319 181.995 162.989 177.592Z" fill="#FEF2F7" fill-opacity="0.3"/>
</g>
<path d="M145.162 138.34C144.26 139.468 140.651 140.69 138.959 141.16C144.034 147.926 155.931 162.248 162.923 165.406C169.915 168.563 171.851 179.878 171.945 185.141C172.396 186.043 172.697 192.283 172.791 195.29C175.723 195.065 176.582 190.498 176.646 188.242C177.236 191.731 176.823 196.532 176.456 198.956C180.516 199.181 186.021 193.787 188.266 191.061C188.802 197.152 188.036 200.47 187.451 201.493C189.707 200.365 195.345 196.7 199.856 191.061C205.495 184.013 198.447 176.965 195.909 175.837C193.372 174.709 192.808 151.027 191.962 145.107C191.286 140.37 184.538 134.299 181.249 131.856C154.465 119.451 146.289 136.931 145.162 138.34Z" fill="url(#paint14_linear_1_217)"/>
<path d="M175.617 174.811C174.039 173.233 170.073 176.879 168.569 179.322C167.638 180.732 167.159 185.243 172.798 182.705C178.437 180.168 177.591 176.785 175.617 174.811Z" fill="#FBC6D7" stroke="url(#paint15_linear_1_217)" stroke-width="0.563862"/>
<path fill-rule="evenodd" clip-rule="evenodd" d="M172.548 177.268C171.595 178.103 170.725 179.329 170.217 180.207C170.139 180.342 169.966 180.388 169.832 180.31C169.697 180.232 169.651 180.059 169.729 179.925C170.254 179.017 171.161 177.734 172.177 176.844C172.684 176.4 173.237 176.037 173.801 175.88C174.378 175.72 174.967 175.777 175.499 176.175C175.623 176.269 175.649 176.445 175.555 176.57C175.462 176.695 175.285 176.72 175.161 176.626C174.79 176.349 174.388 176.302 173.952 176.423C173.504 176.548 173.025 176.85 172.548 177.268ZM174.305 177.028C174.426 176.93 174.603 176.948 174.702 177.068C174.926 177.342 175.148 177.683 175.289 178.039C175.429 178.389 175.504 178.791 175.378 179.163C175.246 179.552 174.917 179.839 174.398 179.993C173.888 180.145 173.171 180.179 172.195 180.064C172.041 180.046 171.93 179.906 171.948 179.751C171.967 179.596 172.107 179.486 172.261 179.504C173.203 179.615 173.833 179.573 174.237 179.453C174.632 179.336 174.786 179.154 174.844 178.982C174.909 178.792 174.882 178.54 174.765 178.247C174.651 177.959 174.464 177.668 174.266 177.425C174.167 177.305 174.185 177.127 174.305 177.028Z" fill="#FC719A"/>
<path d="M145.444 176.771C128.303 187.597 116.405 173.106 112.458 164.084C122.044 154.499 120.36 155.992 128.528 151.397C133.039 148.86 135.294 149.706 136.986 139.838C140.595 140.515 158.413 142.939 164.615 155.626L166.589 155.908C190.271 159.968 193.278 149.048 191.681 143.221C202.732 161.716 177.96 163.802 164.615 162.393C163.487 164.93 162.585 165.945 145.444 176.771Z" fill="url(#paint16_linear_1_217)"/>
<mask id="mask7_1_217" style="mask-type:alpha" maskUnits="userSpaceOnUse" x="112" y="139" width="83" height="42">
<path d="M145.444 176.771C128.303 187.597 116.405 173.106 112.458 164.084C122.044 154.499 120.36 155.992 128.528 151.397C133.039 148.86 135.294 149.706 136.986 139.838C140.595 140.515 158.413 142.939 164.615 155.626L166.589 155.908C190.271 159.968 193.278 149.048 191.681 143.221C202.732 161.716 177.96 163.802 164.615 162.393C163.487 164.93 162.585 165.945 145.444 176.771Z" fill="url(#paint17_linear_1_217)"/>
</mask>
<g mask="url(#mask7_1_217)">
<path d="M127.964 186.92L156.721 173.106C151.365 168.031 140.369 173.095 133.039 166.047C125.709 158.999 133.603 153.924 126.273 151.669L103.437 162.674L127.964 186.92Z" fill="url(#paint18_linear_1_217)" fill-opacity="0.3"/>
<path d="M124.506 156.351C114.53 160.11 115.727 161.991 112.74 165.52L110.767 162.7L120.071 152.269L135.295 136.173C141.215 139.556 135.432 148.252 133.885 149.424C130.785 151.773 129.105 151.452 126.46 154.872C125.952 155.529 125.283 156.058 124.506 156.351Z" fill="#C1DBF7"/>
</g>
<path d="M136.705 150.269C136.987 153.84 144.317 159.943 161.796 162.48" stroke="#BAD4F6" stroke-width="0.563862" stroke-linecap="round" stroke-linejoin="round"/>
<path d="M149.885 149.572C145.424 148.5 143.638 147.527 141.427 145C140.624 147.208 142.283 151.691 143.365 151.767C143.593 151.783 147.785 149.456 149.885 149.572Z" fill="#B8D2F6"/>
<path d="M144.314 220.188C133.662 208.87 107.125 182.886 95.8009 173.281C95.4473 172.981 95.2327 172.571 95.2976 172.112C96.1176 166.309 108.37 145.064 123.452 130.252C125.989 124.049 127.962 124.331 130.782 116.437C133.037 110.122 139.24 109.295 142.623 110.517C143.751 110.924 142.922 112.656 140.931 113.054C138.112 113.618 136.138 116.437 136.138 118.129C136.138 119.291 135.011 126.587 143.187 123.204C145.442 120.384 146.852 125.177 137.83 131.662C130.782 134.763 110.765 164.614 113.02 166.057C118.957 167.82 127.482 181.543 146.57 186.92C166.587 192.559 185.194 204.4 178.428 220.188C171.662 235.976 157.847 234.566 144.314 220.188Z" fill="#FF7CA6"/>
<mask id="mask8_1_217" style="mask-type:alpha" maskUnits="userSpaceOnUse" x="95" y="110" width="85" height="122">
<path d="M144.316 220.188C133.664 208.87 107.126 182.886 95.8023 173.281C95.4487 172.981 95.2341 172.571 95.299 172.112C96.119 166.309 108.371 145.065 123.453 130.252C125.99 124.049 127.964 124.331 130.783 116.437C133.039 110.122 139.241 109.295 142.624 110.517C143.752 110.924 142.923 112.656 140.933 113.054C138.113 113.618 136.14 116.437 136.14 118.129C136.14 119.291 135.012 126.587 143.188 123.204C145.444 120.384 146.853 125.177 137.831 131.662C130.783 134.763 110.766 164.614 113.021 166.057C118.958 167.82 127.484 181.543 146.571 186.92C166.588 192.559 185.196 204.4 178.429 220.188C171.663 235.976 157.848 234.566 144.316 220.188Z" fill="#FF7CA6"/>
</mask>
<g mask="url(#mask8_1_217)">
<path d="M140.654 222.358C130.002 211.04 103.464 185.056 92.1405 175.451C91.7868 175.151 91.5722 174.742 91.6371 174.282C92.4572 168.479 104.709 147.235 119.791 132.422C122.328 126.22 124.302 126.502 127.121 118.608C129.377 112.292 139.24 108.168 142.623 109.389C143.751 109.796 144.049 112.938 142.059 113.336C139.24 113.9 137.548 116.084 136.984 118.057C136.665 119.175 134.447 125.755 142.623 122.371C144.878 119.552 146.006 126.023 134.729 132.422C127.681 135.523 107.104 166.784 109.36 168.227C115.296 169.99 123.822 183.714 142.909 189.09C162.926 194.729 181.534 206.57 174.768 222.358C168.001 238.146 154.187 236.737 140.654 222.358Z" fill="#FEB3CB"/>
<mask id="mask9_1_217" style="mask-type:alpha" maskUnits="userSpaceOnUse" x="91" y="109" width="86" height="125">
<path d="M140.654 222.358C130.002 211.04 103.464 185.056 92.1405 175.451C91.7868 175.151 91.5722 174.742 91.6371 174.282C92.4572 168.479 104.709 147.235 119.791 132.422C122.328 126.22 124.302 126.502 127.121 118.608C129.377 112.292 139.24 108.168 142.623 109.389C143.751 109.796 144.049 112.938 142.059 113.336C139.24 113.9 137.548 116.084 136.984 118.057C136.665 119.175 134.447 125.755 142.623 122.371C144.878 119.552 146.006 126.023 134.729 132.422C127.681 135.523 107.104 166.784 109.36 168.227C115.296 169.99 123.822 183.714 142.909 189.09C162.926 194.729 181.534 206.57 174.768 222.358C168.001 238.146 154.187 236.737 140.654 222.358Z" fill="#FEB3CB"/>
</mask>
<g mask="url(#mask9_1_217)">
<path d="M137.834 222.573C127.182 211.255 100.645 185.27 89.3207 175.665C88.9671 175.365 88.7525 174.956 88.8174 174.497C89.6374 168.694 101.889 147.449 116.971 132.637C119.509 126.434 121.482 126.716 124.302 118.822C126.557 112.507 142.904 107.604 146.288 108.825C147.415 109.233 148.543 115.659 143.186 114.746C140.352 114.263 140.654 116.848 140.09 118.822C139.77 119.94 136.42 124.05 144.596 120.667C146.851 117.847 147.133 123.289 135.856 129.688C128.808 132.79 104.284 166.998 106.54 168.442C112.476 170.204 121.002 183.928 140.09 189.305C160.107 194.943 178.714 206.784 171.948 222.573C165.182 238.361 151.367 236.951 137.834 222.573Z" fill="#FBC6D7"/>
<path d="M141.213 111.363C147.698 116.438 147.484 107.416 143.187 106.57C138.394 108.449 124.398 114.633 122.82 115.31C120.846 116.156 92.4394 174.233 90.1839 175.925C88.3796 177.278 102.683 186.074 107.946 193.969L166.587 238.232C167.997 232.311 164.163 229.717 158.975 227.236C152.491 224.135 148.262 222.444 145.442 217.369C142.623 212.294 129.654 199.607 123.734 193.969C117.813 188.33 98.6419 174.797 98.6419 170.568C98.6419 167.628 107.664 153.37 117.813 138.146C130.782 126.587 134.709 106.273 141.213 111.363Z" fill="#FEF2F7"/>
</g>
</g>
<path d="M250.885 273.755C259.563 294.224 255.148 294.516 230.304 305.049C205.46 315.583 178.649 332.406 169.971 311.937C161.292 291.467 146.808 243.087 171.653 232.553C196.497 222.019 242.206 253.286 250.885 273.755Z" fill="url(#paint19_linear_1_217)"/>
<ellipse cx="211.459" cy="292.751" rx="50.8716" ry="44.0786" transform="rotate(-22.9766 211.459 292.751)" fill="url(#paint20_radial_1_217)" fill-opacity="0.5"/>
<ellipse cx="211.205" cy="293.404" rx="47.3623" ry="40.1515" transform="rotate(-22.9766 211.205 293.404)" fill="#F0DCC5"/>
<ellipse cx="210.997" cy="292.27" rx="44.827" ry="36.9329" transform="rotate(-22.9766 210.997 292.27)" fill="url(#paint21_radial_1_217)"/>
<mask id="mask10_1_217" style="mask-type:alpha" maskUnits="userSpaceOnUse" x="167" y="254" width="88" height="77">
<ellipse cx="210.997" cy="292.271" rx="44.827" ry="36.9329" transform="rotate(-22.9766 210.997 292.271)" fill="#D16035"/>
</mask>
<g mask="url(#mask10_1_217)">
<path d="M227.39 231.029C235.113 249.244 223.496 271.877 200.985 281.422C178.474 290.966 154.13 283.581 146.407 265.366C138.684 247.151 150.301 224.518 172.812 214.973C195.323 205.429 219.667 212.814 227.39 231.029Z" stroke="url(#paint22_radial_1_217)" stroke-width="1.69158"/>
<path d="M273.392 334.216C281.166 352.551 272.32 373.867 253.589 381.809C234.857 389.751 213.385 381.289 205.611 362.954C197.838 344.619 206.684 323.303 225.415 315.361C244.146 307.419 265.618 315.881 273.392 334.216Z" stroke="url(#paint23_linear_1_217)" stroke-width="1.69158"/>
</g>
<defs>
<linearGradient id="paint0_linear_1_217" x1="242.427" y1="22.5544" x2="195.627" y2="118.693" gradientUnits="userSpaceOnUse">
<stop stop-color="#FFFF97" stop-opacity="0.945806"/>
<stop offset="0.456015" stop-color="white"/>
<stop offset="1" stop-color="white" stop-opacity="0.4"/>
</linearGradient>
<linearGradient id="paint1_linear_1_217" x1="238.527" y1="374.665" x2="216.119" y2="524.17" gradientUnits="userSpaceOnUse">
<stop stop-color="#FF78A3"/>
<stop offset="1" stop-color="#FF8EB2"/>
</linearGradient>
<linearGradient id="paint2_linear_1_217" x1="176.747" y1="307.586" x2="152.773" y2="393.011" gradientUnits="userSpaceOnUse">
<stop stop-color="#647B64"/>
<stop offset="1" stop-color="#647B64"/>
</linearGradient>
<linearGradient id="paint3_linear_1_217" x1="176.747" y1="307.586" x2="152.773" y2="393.011" gradientUnits="userSpaceOnUse">
<stop stop-color="#647B64"/>
<stop offset="1" stop-color="#647B64"/>
</linearGradient>
<linearGradient id="paint4_linear_1_217" x1="195.909" y1="349.03" x2="183.222" y2="347.338" gradientUnits="userSpaceOnUse">
<stop stop-color="#C1C5FF"/>
<stop offset="1" stop-color="#C1C5FF" stop-opacity="0"/>
</linearGradient>
<linearGradient id="paint5_linear_1_217" x1="183.503" y1="335.497" x2="178.71" y2="348.466" gradientUnits="userSpaceOnUse">
<stop stop-color="#C1C5FF"/>
<stop offset="1" stop-color="#C7CAFF" stop-opacity="0"/>
</linearGradient>
<linearGradient id="paint6_linear_1_217" x1="140.087" y1="329.295" x2="136.14" y2="311.533" gradientUnits="userSpaceOnUse">
<stop stop-color="#DBF3F8"/>
<stop offset="1" stop-color="#99B5F3"/>
</linearGradient>
<linearGradient id="paint7_linear_1_217" x1="168.641" y1="191.149" x2="172.306" y2="344.801" gradientUnits="userSpaceOnUse">
<stop stop-color="#647B64"/>
<stop offset="1" stop-color="#647B64"/>
</linearGradient>
<linearGradient id="paint8_linear_1_217" x1="168.642" y1="191.149" x2="172.307" y2="344.801" gradientUnits="userSpaceOnUse">
<stop stop-color="#647B64"/>
<stop offset="1" stop-color="#647B64"/>
</linearGradient>
<linearGradient id="paint9_linear_1_217" x1="133.317" y1="271.729" x2="146.152" y2="326.114" gradientUnits="userSpaceOnUse">
<stop stop-color="#99B5F3"/>
<stop offset="1" stop-color="#DBF3F8"/>
</linearGradient>
<linearGradient id="paint10_linear_1_217" x1="162.618" y1="329.295" x2="143.446" y2="301.384" gradientUnits="userSpaceOnUse">
<stop stop-color="#C1C5FF"/>
<stop offset="1" stop-color="#C1C5FF" stop-opacity="0"/>
</linearGradient>
<linearGradient id="paint11_linear_1_217" x1="163.768" y1="314.635" x2="151.327" y2="296.035" gradientUnits="userSpaceOnUse">
<stop stop-color="#C1C5FF"/>
<stop offset="1" stop-color="#C1C5FF" stop-opacity="0"/>
</linearGradient>
<linearGradient id="paint12_linear_1_217" x1="189.706" y1="203.836" x2="194.265" y2="228.868" gradientUnits="userSpaceOnUse">
<stop stop-color="#C1C5FF"/>
<stop offset="1" stop-color="#C1C5FF" stop-opacity="0"/>
</linearGradient>
<linearGradient id="paint13_linear_1_217" x1="142.342" y1="243.572" x2="135.576" y2="207.767" gradientUnits="userSpaceOnUse">
<stop stop-color="#647B64"/>
<stop offset="1" stop-color="#DBF3F8"/>
</linearGradient>
<linearGradient id="paint14_linear_1_217" x1="170.254" y1="155.256" x2="170.473" y2="201.493" gradientUnits="userSpaceOnUse">
<stop stop-color="#050753"/>
<stop offset="1" stop-color="#008294"/>
</linearGradient>
<linearGradient id="paint15_linear_1_217" x1="175.611" y1="176.965" x2="169.126" y2="180.066" gradientUnits="userSpaceOnUse">
<stop stop-color="#FC719A"/>
<stop offset="1" stop-color="#FC719A" stop-opacity="0"/>
</linearGradient>
<linearGradient id="paint16_linear_1_217" x1="115.841" y1="178.181" x2="195.91" y2="152.807" gradientUnits="userSpaceOnUse">
<stop stop-color="#647B64"/>
<stop offset="0.511301" stop-color="#647B64"/>
<stop offset="0.857583" stop-color="#5EC0DF"/>
<stop offset="1" stop-color="white"/>
</linearGradient>
<linearGradient id="paint17_linear_1_217" x1="157.567" y1="160.419" x2="200.984" y2="155.344" gradientUnits="userSpaceOnUse">
<stop stop-color="#02C3CD"/>
<stop offset="1" stop-color="white"/>
</linearGradient>
<linearGradient id="paint18_linear_1_217" x1="128.81" y1="178.181" x2="131.066" y2="157.036" gradientUnits="userSpaceOnUse">
<stop stop-color="white"/>
<stop offset="1" stop-color="#003BD5" stop-opacity="0"/>
<stop offset="1" stop-color="white"/>
</linearGradient>
<linearGradient id="paint19_linear_1_217" x1="171.38" y1="247.254" x2="218.641" y2="329.291" gradientUnits="userSpaceOnUse">
<stop stop-color="#F5FF7C" stop-opacity="0"/>
<stop offset="0.544444" stop-color="#F0DCC5"/>
<stop offset="1" stop-color="#AD8B64"/>
</linearGradient>
<radialGradient id="paint20_radial_1_217" cx="0" cy="0" r="1" gradientUnits="userSpaceOnUse" gradientTransform="translate(212.069 346.765) rotate(-84.1426) scale(65.0671 75.1295)">
<stop stop-color="#FFEC3E"/>
<stop offset="1" stop-color="#F0DCC5"/>
</radialGradient>
<radialGradient id="paint21_radial_1_217" cx="0" cy="0" r="1" gradientUnits="userSpaceOnUse" gradientTransform="translate(208.593 260.729) rotate(91.0357) scale(86.0166 104.402)">
<stop stop-color="#F0DCC5"/>
<stop offset="0.546875" stop-color="#F0DCC5"/>
<stop offset="1" stop-color="#CF9B5E"/>
</radialGradient>
<radialGradient id="paint22_radial_1_217" cx="0" cy="0" r="1" gradientUnits="userSpaceOnUse" gradientTransform="translate(197.035 297.156) rotate(-100.46) scale(55.9055 67.8548)">
<stop stop-color="white"/>
<stop offset="1" stop-color="white" stop-opacity="0"/>
</radialGradient>
<linearGradient id="paint23_linear_1_217" x1="217.616" y1="299.975" x2="231.994" y2="327.322" gradientUnits="userSpaceOnUse">
<stop stop-color="white"/>
<stop offset="1" stop-color="white" stop-opacity="0"/>
</linearGradient>
<clipPath id="clip0_1_217">
<rect width="120.96" height="158.096" fill="white" transform="translate(165.988) rotate(26.2336)"/>
</clipPath>
</defs>
</svg>
