<svg width="182" height="155" viewBox="0 0 182 155" fill="none" xmlns="http://www.w3.org/2000/svg">
<path d="M14.2606 79.9304C14.5098 79.8264 14.6725 79.5838 14.6725 79.3146L14.6725 72.0117L31.3335 72.0117C31.7014 72.0117 32 71.7131 32 71.3452L32 60.6821C32 60.3142 31.7014 60.0156 31.3335 60.0156L14.6724 60.0156L14.6724 52.6848C14.6724 52.4155 14.5098 52.1729 14.2619 52.069C14.0126 51.9663 13.726 52.0223 13.5354 52.2129L0.195873 65.5085C0.0706026 65.6338 -6.08708e-05 65.8031 -6.08687e-05 65.9803C-6.08665e-05 66.1576 0.0706026 66.3269 0.194561 66.4522L13.5341 79.7864C13.7248 79.977 14.0113 80.0343 14.2606 79.9304Z" fill="url(#paint0_linear_1_108)"/>
<g filter="url(#filter0_d_1_108)">
<circle cx="104.5" cy="65.5" r="37.5" fill="url(#paint1_linear_1_108)"/>
</g>
<g clip-path="url(#clip0_1_108)">
<path d="M105.739 52.0696C105.49 52.1736 105.328 52.4162 105.328 52.6854L105.328 59.9883L88.6665 59.9883C88.2986 59.9883 88.0001 60.2869 88.0001 60.6548L88.0001 71.3179C88.0001 71.6858 88.2986 71.9844 88.6665 71.9844L105.328 71.9844L105.328 79.3152C105.328 79.5845 105.49 79.8271 105.738 79.931C105.987 80.0337 106.274 79.9777 106.465 79.7871L119.804 66.4915C119.929 66.3662 120 66.1969 120 66.0197C120 65.8424 119.929 65.6731 119.805 65.5478L106.466 52.2136C106.275 52.023 105.989 51.9657 105.739 52.0696Z" fill="white"/>
</g>
<defs>
<filter id="filter0_d_1_108" x="27.0001" y="0" width="155" height="155" filterUnits="userSpaceOnUse" color-interpolation-filters="sRGB">
<feFlood flood-opacity="0" result="BackgroundImageFix"/>
<feColorMatrix in="SourceAlpha" type="matrix" values="0 0 0 0 0 0 0 0 0 0 0 0 0 0 0 0 0 0 127 0" result="hardAlpha"/>
<feOffset dy="12"/>
<feGaussianBlur stdDeviation="20"/>
<feColorMatrix type="matrix" values="0 0 0 0 0 0 0 0 0 0 0 0 0 0 0 0 0 0 0.06 0"/>
<feBlend mode="normal" in2="BackgroundImageFix" result="effect1_dropShadow_1_108"/>
<feBlend mode="normal" in="SourceGraphic" in2="effect1_dropShadow_1_108" result="shape"/>
</filter>
<linearGradient id="paint0_linear_1_108" x1="40.2581" y1="52.0183" x2="28.8103" y2="112.11" gradientUnits="userSpaceOnUse">
<stop stop-color="#647B64"/>
<stop offset="1" stop-color="#6ADD6A"/>
</linearGradient>
<linearGradient id="paint1_linear_1_108" x1="67.0001" y1="8.64513" x2="226.442" y2="43.4048" gradientUnits="userSpaceOnUse">
<stop stop-color="#647B64"/>
<stop offset="1" stop-color="#6ADD6A"/>
</linearGradient>
<clipPath id="clip0_1_108">
<rect width="32" height="32" fill="white" transform="translate(88.0001 82) rotate(-90)"/>
</clipPath>
</defs>
</svg>
