<svg width="22" height="16" viewBox="0 0 22 16" fill="none" xmlns="http://www.w3.org/2000/svg">
<path d="M21.8093 7.26109L14.998 0.444912C14.8667 0.342663 14.7027 0.29197 14.5368 0.302356C14.3709 0.312741 14.2145 0.383491 14.0969 0.501314C13.9794 0.619137 13.9088 0.775925 13.8984 0.942228C13.8881 1.10853 13.9387 1.2729 14.0407 1.40447L19.6855 7.06256H0.682227C0.501289 7.06256 0.327762 7.13461 0.19982 7.26285C0.0718774 7.39109 0 7.56502 0 7.74638C0 7.92774 0.0718774 8.10168 0.19982 8.22992C0.327762 8.35816 0.501289 8.43021 0.682227 8.43021H19.6745L14.0407 14.0773C13.9643 14.1368 13.9014 14.2119 13.8562 14.2976C13.8109 14.3834 13.7844 14.4778 13.7784 14.5746C13.7724 14.6714 13.787 14.7684 13.8212 14.8591C13.8554 14.9498 13.9085 15.0322 13.9769 15.1007C14.0453 15.1693 14.1275 15.2225 14.218 15.2568C14.3085 15.2911 14.4053 15.3057 14.5018 15.2997C14.5984 15.2937 14.6926 15.2671 14.7781 15.2218C14.8637 15.1764 14.9386 15.1134 14.998 15.0368L21.8093 8.20962C21.9316 8.0822 22 7.91222 22 7.73535C22 7.55849 21.9316 7.3885 21.8093 7.26109Z" fill="#FEFEFE"/>
</svg>
