<svg width="22" height="17" viewBox="0 0 22 17" fill="none" xmlns="http://www.w3.org/2000/svg">
<path fill-rule="evenodd" clip-rule="evenodd" d="M1.01852 3.16671C0.732149 3.16671 0.5 2.64437 0.5 2.00004C0.5 1.35571 0.732149 0.833374 1.01852 0.833374H9.31482C9.60118 0.833374 9.83333 1.35571 9.83333 2.00004C9.83333 2.64437 9.60118 3.16671 9.31482 3.16671H1.01852ZM1.66667 10.1667C1.02233 10.1667 0.5 9.64437 0.5 9.00004C0.5 8.35571 1.02233 7.83337 1.66667 7.83337H20.3333C20.9777 7.83337 21.5 8.35571 21.5 9.00004C21.5 9.64437 20.9777 10.1667 20.3333 10.1667H1.66667ZM12 15.9999C12 16.5522 12.2239 16.9999 12.5 16.9999H20.5C20.7761 16.9999 21 16.5522 21 15.9999C21 15.4476 20.7761 14.9999 20.5 14.9999H12.5C12.2239 14.9999 12 15.4476 12 15.9999Z" fill="#222B45"/>
</svg>
